<svg width="304" height="150" viewBox="0 0 304 150" fill="none" xmlns="http://www.w3.org/2000/svg">
<path fill-rule="evenodd" clip-rule="evenodd" d="M2.5 2.5H147.5V17H150V2.5V0H147.5H2.5H0V2.5V147.5V150H2.5H147.5H150V147.5V126H147.5V147.5H2.5V2.5Z" fill="#101010"/>
<path d="M20.1087 79V31.7273H38.7592C42.3293 31.7273 45.3762 32.3659 47.8999 33.6431C50.4389 34.9049 52.3701 36.6977 53.6935 39.0213C55.0323 41.3295 55.7017 44.0456 55.7017 47.1694C55.7017 50.3086 55.0246 53.0092 53.6705 55.2713C52.3163 57.518 50.3543 59.2415 47.7844 60.4418C45.23 61.642 42.137 62.2422 38.5053 62.2422H26.0178V54.2095H36.8896C38.7977 54.2095 40.3827 53.9479 41.6445 53.4247C42.9064 52.9015 43.8451 52.1167 44.4606 51.0703C45.0915 50.0239 45.407 48.7236 45.407 47.1694C45.407 45.5998 45.0915 44.2764 44.4606 43.1992C43.8451 42.122 42.8987 41.3065 41.6215 40.7525C40.3596 40.1831 38.7669 39.8984 36.8434 39.8984H30.1033V79H20.1087ZM45.6378 57.4872L57.3867 79H46.3533L34.8583 57.4872H45.6378ZM62.7649 79V31.7273H94.6186V39.9677H72.7596V51.2319H92.9798V59.4723H72.7596V70.7596H94.7109V79H62.7649ZM110.713 79H100.003L116.322 31.7273H129.202L145.498 79H134.788L122.946 42.5298H122.577L110.713 79ZM110.043 60.4187H135.342V68.2205H110.043V60.4187ZM151.188 79V31.7273H161.182V70.7596H181.449V79H151.188ZM188.068 79V31.7273H198.062V70.7596H218.329V79H188.068ZM224.948 79V31.7273H256.801V39.9677H234.942V51.2319H255.162V59.4723H234.942V70.7596H256.894V79H224.948ZM290.392 45.3228C290.207 43.4608 289.415 42.0143 288.014 40.9833C286.614 39.9523 284.714 39.4368 282.313 39.4368C280.682 39.4368 279.305 39.6676 278.181 40.1293C277.058 40.5755 276.196 41.1987 275.596 41.9989C275.011 42.7991 274.719 43.707 274.719 44.7227C274.688 45.569 274.865 46.3076 275.25 46.9386C275.65 47.5695 276.196 48.1158 276.889 48.5774C277.581 49.0237 278.381 49.4161 279.289 49.7546C280.197 50.0778 281.167 50.3548 282.198 50.5856L286.445 51.6012C288.507 52.0629 290.4 52.6784 292.123 53.4478C293.847 54.2172 295.339 55.1636 296.601 56.2869C297.863 57.4103 298.84 58.7337 299.532 60.2571C300.24 61.7805 300.602 63.5271 300.617 65.4968C300.602 68.3898 299.863 70.8981 298.401 73.0217C296.955 75.1299 294.862 76.7687 292.123 77.9382C289.399 79.0923 286.114 79.6694 282.267 79.6694C278.451 79.6694 275.127 79.0846 272.295 77.9151C269.479 76.7456 267.279 75.0144 265.694 72.7216C264.124 70.4134 263.301 67.5588 263.224 64.158H272.895C273.003 65.743 273.457 67.0664 274.257 68.1282C275.073 69.1746 276.158 69.9671 277.512 70.5057C278.881 71.0289 280.428 71.2905 282.151 71.2905C283.844 71.2905 285.314 71.0443 286.56 70.5518C287.822 70.0594 288.799 69.3746 289.492 68.4975C290.184 67.6204 290.53 66.6125 290.53 65.4737C290.53 64.4119 290.215 63.5194 289.584 62.7962C288.968 62.0729 288.061 61.4574 286.86 60.9496C285.675 60.4418 284.221 59.9801 282.498 59.5646L277.35 58.272C273.365 57.3026 270.218 55.7868 267.91 53.7248C265.601 51.6628 264.455 48.8852 264.47 45.392C264.455 42.5298 265.217 40.0292 266.756 37.8903C268.31 35.7513 270.441 34.0817 273.149 32.8814C275.858 31.6811 278.935 31.081 282.382 31.081C285.891 31.081 288.953 31.6811 291.569 32.8814C294.2 34.0817 296.247 35.7513 297.709 37.8903C299.171 40.0292 299.925 42.5067 299.971 45.3228H290.392Z" fill="#101010"/>
<path d="M25.625 113H21.5852V99.9091H25.804C27.0739 99.9091 28.1605 100.171 29.0639 100.695C29.9673 101.215 30.6598 101.963 31.1413 102.939C31.6229 103.911 31.8636 105.074 31.8636 106.429C31.8636 107.793 31.6207 108.967 31.1349 109.951C30.6491 110.931 29.9418 111.685 29.0128 112.214C28.0838 112.738 26.9545 113 25.625 113ZM23.1705 111.594H25.5227C26.6051 111.594 27.5021 111.385 28.2138 110.967C28.9254 110.55 29.456 109.955 29.8054 109.184C30.1548 108.413 30.3295 107.494 30.3295 106.429C30.3295 105.372 30.157 104.462 29.8118 103.7C29.4666 102.933 28.951 102.344 28.2649 101.935C27.5788 101.522 26.7244 101.315 25.7017 101.315H23.1705V111.594ZM34.5227 113V99.9091H42.4233V101.315H36.108V105.739H42.0142V107.145H36.108V111.594H42.5256V113H34.5227ZM52.4396 103.182C52.3629 102.534 52.0518 102.031 51.5064 101.673C50.9609 101.315 50.2919 101.136 49.4993 101.136C48.9197 101.136 48.4126 101.23 47.978 101.418C47.5476 101.605 47.2109 101.863 46.968 102.191C46.7294 102.519 46.6101 102.892 46.6101 103.31C46.6101 103.659 46.6932 103.96 46.8594 104.211C47.0298 104.458 47.2472 104.665 47.5114 104.831C47.7756 104.993 48.0526 105.127 48.3423 105.234C48.6321 105.336 48.8984 105.419 49.1413 105.483L50.4709 105.841C50.8118 105.93 51.1911 106.054 51.6087 106.212C52.0305 106.369 52.4332 106.585 52.8168 106.857C53.2045 107.126 53.5241 107.471 53.7756 107.893C54.027 108.315 54.1527 108.832 54.1527 109.446C54.1527 110.153 53.9673 110.793 53.5966 111.364C53.2301 111.935 52.6932 112.388 51.9858 112.725C51.2827 113.062 50.4283 113.23 49.4226 113.23C48.4851 113.23 47.6733 113.079 46.9872 112.776C46.3054 112.474 45.7685 112.052 45.3764 111.511C44.9886 110.969 44.7692 110.341 44.718 109.625H46.3544C46.397 110.119 46.5632 110.528 46.853 110.852C47.147 111.172 47.5178 111.411 47.9652 111.568C48.4169 111.722 48.9027 111.798 49.4226 111.798C50.0277 111.798 50.571 111.7 51.0526 111.504C51.5341 111.304 51.9155 111.027 52.1967 110.673C52.478 110.315 52.6186 109.898 52.6186 109.42C52.6186 108.986 52.4972 108.632 52.2543 108.359C52.0114 108.087 51.6918 107.865 51.2955 107.695C50.8991 107.524 50.4709 107.375 50.0107 107.247L48.3999 106.787C47.3771 106.493 46.5675 106.073 45.9709 105.528C45.3743 104.982 45.076 104.268 45.076 103.386C45.076 102.653 45.2741 102.014 45.6705 101.469C46.071 100.919 46.608 100.493 47.2812 100.19C47.9588 99.8835 48.7152 99.7301 49.5504 99.7301C50.3942 99.7301 51.1442 99.8814 51.8004 100.184C52.4567 100.482 52.9766 100.891 53.3601 101.411C53.7479 101.931 53.9524 102.521 53.9737 103.182H52.4396ZM58.3443 99.9091V113H56.7591V99.9091H58.3443ZM70.4716 104C70.331 103.57 70.1456 103.184 69.9155 102.843C69.6896 102.498 69.419 102.204 69.1037 101.961C68.7926 101.718 68.4389 101.533 68.0426 101.405C67.6463 101.277 67.2116 101.213 66.7386 101.213C65.9631 101.213 65.2578 101.413 64.6229 101.814C63.9879 102.214 63.483 102.805 63.108 103.585C62.733 104.364 62.5455 105.321 62.5455 106.455C62.5455 107.588 62.7351 108.545 63.1143 109.325C63.4936 110.104 64.0071 110.695 64.6548 111.095C65.3026 111.496 66.0313 111.696 66.8409 111.696C67.5909 111.696 68.2514 111.536 68.8224 111.217C69.3977 110.893 69.8452 110.437 70.1648 109.849C70.4886 109.256 70.6506 108.56 70.6506 107.759L71.1364 107.861H67.1989V106.455H72.1847V107.861C72.1847 108.939 71.9545 109.876 71.4943 110.673C71.0384 111.47 70.4077 112.088 69.6023 112.527C68.8011 112.962 67.8807 113.179 66.8409 113.179C65.6818 113.179 64.6634 112.906 63.7855 112.361C62.9119 111.815 62.2301 111.04 61.7401 110.034C61.2543 109.028 61.0114 107.835 61.0114 106.455C61.0114 105.419 61.1499 104.488 61.4268 103.661C61.7081 102.83 62.1044 102.123 62.6158 101.539C63.1271 100.955 63.7322 100.508 64.4311 100.197C65.13 99.8857 65.8991 99.7301 66.7386 99.7301C67.429 99.7301 68.0724 99.8345 68.669 100.043C69.2699 100.248 69.8047 100.54 70.2734 100.919C70.7464 101.294 71.1406 101.744 71.456 102.268C71.7713 102.788 71.9886 103.365 72.108 104H70.4716ZM85.2804 99.9091V113H83.7463L76.6127 102.722H76.4849V113H74.8997V99.9091H76.4338L83.5929 110.213H83.7207V99.9091H85.2804ZM95.1001 99.9091V113H93.5149V99.9091H95.1001ZM108.659 99.9091V113H107.125L99.9917 102.722H99.8638V113H98.2786V99.9091H99.8127L106.972 110.213H107.1V99.9091H108.659ZM111.115 101.315V99.9091H120.934V101.315H116.817V113H115.232V101.315H111.115ZM123.38 113V99.9091H131.281V101.315H124.965V105.739H130.872V107.145H124.965V111.594H131.383V113H123.38ZM134.138 113V99.9091H138.561C139.584 99.9091 140.423 100.084 141.08 100.433C141.736 100.778 142.222 101.254 142.537 101.859C142.852 102.464 143.01 103.152 143.01 103.923C143.01 104.695 142.852 105.379 142.537 105.975C142.222 106.572 141.738 107.04 141.086 107.381C140.434 107.718 139.601 107.886 138.587 107.886H135.007V106.455H138.536C139.235 106.455 139.797 106.352 140.223 106.148C140.654 105.943 140.965 105.653 141.156 105.278C141.352 104.899 141.45 104.447 141.45 103.923C141.45 103.399 141.352 102.941 141.156 102.549C140.96 102.157 140.647 101.854 140.217 101.641C139.786 101.424 139.218 101.315 138.51 101.315H135.723V113H134.138ZM140.3 107.119L143.521 113H141.681L138.51 107.119H140.3ZM147.237 99.9091V113H145.652V99.9091H147.237ZM161.461 106.455C161.461 107.835 161.211 109.028 160.713 110.034C160.214 111.04 159.53 111.815 158.661 112.361C157.792 112.906 156.799 113.179 155.682 113.179C154.566 113.179 153.573 112.906 152.704 112.361C151.834 111.815 151.15 111.04 150.652 110.034C150.153 109.028 149.904 107.835 149.904 106.455C149.904 105.074 150.153 103.881 150.652 102.875C151.15 101.869 151.834 101.094 152.704 100.548C153.573 100.003 154.566 99.7301 155.682 99.7301C156.799 99.7301 157.792 100.003 158.661 100.548C159.53 101.094 160.214 101.869 160.713 102.875C161.211 103.881 161.461 105.074 161.461 106.455ZM159.927 106.455C159.927 105.321 159.737 104.364 159.358 103.585C158.983 102.805 158.474 102.214 157.83 101.814C157.191 101.413 156.475 101.213 155.682 101.213C154.89 101.213 154.172 101.413 153.528 101.814C152.889 102.214 152.38 102.805 152.001 103.585C151.626 104.364 151.438 105.321 151.438 106.455C151.438 107.588 151.626 108.545 152.001 109.325C152.38 110.104 152.889 110.695 153.528 111.095C154.172 111.496 154.89 111.696 155.682 111.696C156.475 111.696 157.191 111.496 157.83 111.095C158.474 110.695 158.983 110.104 159.358 109.325C159.737 108.545 159.927 107.588 159.927 106.455ZM164.126 113V99.9091H168.55C169.572 99.9091 170.412 100.084 171.068 100.433C171.724 100.778 172.21 101.254 172.525 101.859C172.841 102.464 172.998 103.152 172.998 103.923C172.998 104.695 172.841 105.379 172.525 105.975C172.21 106.572 171.726 107.04 171.074 107.381C170.422 107.718 169.589 107.886 168.575 107.886H164.996V106.455H168.524C169.223 106.455 169.785 106.352 170.211 106.148C170.642 105.943 170.953 105.653 171.145 105.278C171.341 104.899 171.439 104.447 171.439 103.923C171.439 103.399 171.341 102.941 171.145 102.549C170.949 102.157 170.635 101.854 170.205 101.641C169.775 101.424 169.206 101.315 168.498 101.315H165.711V113H164.126ZM170.288 107.119L173.51 113H171.669L168.498 107.119H170.288Z" fill="#101010"/>
</svg>
